<svg width="38" height="40" viewBox="0 0 38 40" fill="none" xmlns="http://www.w3.org/2000/svg">
<path d="M19.9927 0.13245C19.1672 0.423818 18.5164 1.45332 18.5941 2.33713C18.7301 3.72599 20.2064 4.6098 21.469 4.06592C22.1003 3.79397 22.5082 3.3375 22.7024 2.68678C23.0132 1.63785 22.5373 0.666625 21.4884 0.190724C20.9833 -0.0423708 20.5269 -0.0617952 19.9927 0.13245Z" fill="white"/>
<path d="M19.4002 6.80478C19.1865 6.93103 18.9146 7.20298 18.798 7.41665L18.5746 7.80514V14.7785C18.5746 20.4311 18.6038 21.8102 18.7106 22.0627C18.8757 22.4609 19.3516 22.9174 19.7595 23.0728C20.1675 23.2185 21.0416 23.2282 21.5369 23.0922C22.0613 22.9466 22.5955 22.3735 22.7412 21.8102C22.8772 21.2663 22.8869 8.49471 22.7509 7.91197C22.6538 7.47492 22.4207 7.12528 22.0322 6.84362C21.8088 6.67852 21.5952 6.63967 20.7793 6.61053C19.8955 6.5911 19.7498 6.61053 19.4002 6.80478Z" fill="white"/>
<path d="M29.1611 11.3792V13.1663L29.5787 13.4577C30.7248 14.2929 32.2787 16.216 33.0654 17.8088C33.4248 18.5178 33.8812 19.8192 34.1338 20.8196C34.328 21.5966 34.3571 21.9268 34.3571 23.7332C34.3474 25.4912 34.3183 25.8991 34.1435 26.6469C33.619 28.8128 32.6089 30.8038 31.2007 32.4743C29.365 34.6401 26.3737 36.3301 23.4308 36.8545C22.0808 37.0973 19.7985 37.0779 18.5067 36.806C15.8456 36.2524 13.7283 35.1354 11.7956 33.261C9.81425 31.338 8.58079 29.143 7.97863 26.4041C7.78439 25.5397 7.74554 25.1318 7.75525 23.6847C7.76496 21.8005 7.85237 21.2469 8.43511 19.5181C9.08583 17.5563 9.99879 16.0508 11.4071 14.594L12.2617 13.7102V11.9037C12.2617 10.9034 12.2423 10.0875 12.2132 10.0875C12.1063 10.0875 11.7179 10.34 11.0477 10.8354C9.40634 12.0494 7.36676 14.5357 6.39553 16.5365C5.8128 17.7116 5.14265 19.7609 4.91927 21.0138C4.71531 22.189 4.67646 25.025 4.861 26.1128C5.78366 31.6682 9.11497 36.1261 14.1265 38.4959C15.088 38.9524 16.6905 39.506 17.1082 39.5351C17.2441 39.5448 17.4092 39.5837 17.4675 39.6225C17.5161 39.6711 17.7589 39.7196 18.0017 39.7488C18.2348 39.7779 18.7398 39.8459 19.1089 39.9139C20.2549 40.0984 23.1589 39.9722 24.4992 39.6711C27.5974 38.9912 30.2294 37.5829 32.4827 35.3783C34.2989 33.6106 35.2895 32.1344 36.3773 29.6092C36.892 28.4146 37.3388 26.3264 37.4554 24.6074C37.5622 23.034 37.3 20.7516 36.8435 19.2656C35.6392 15.3613 33.5122 12.467 30.21 10.2041C29.7147 9.87385 29.2873 9.60191 29.2388 9.60191C29.1999 9.60191 29.1611 10.3983 29.1611 11.3792Z" fill="white"/>
<path d="M12.2207 7.0414V8.30399C1.05157 12.2375 -3.35807 32.2933 12.1816 39.4804C-4.13504 34.8573 -3.99881 12.7231 12.2207 7.0414Z" fill="white"/>
</svg>
